<svg width="512" height="512" viewBox="0 0 512 512" fill="none" xmlns="http://www.w3.org/2000/svg">
<path fill-rule="evenodd" clip-rule="evenodd" d="M512 256C512 397.389 397.388 512 256 512C227.047 512.036 198.299 507.154 170.982 497.561C159.466 469.667 153.56 439.777 153.6 409.6C153.53 354.974 172.935 302.112 208.333 260.505C223.609 282.81 244.095 301.052 268.014 313.65C291.934 326.247 318.565 332.821 345.6 332.8C374.276 332.814 402.469 325.413 427.44 311.315C452.412 297.216 473.313 276.9 488.115 252.339C494.259 242.202 512 244.147 512 256Z" fill="#BD1211"/>
<path d="M0 256C0 367.59 71.3984 462.489 170.982 497.536C159.47 469.65 153.563 439.769 153.6 409.6C153.6 352.742 174.208 300.672 208.333 260.505C189.302 232.818 179.142 199.997 179.2 166.4C179.186 137.724 186.587 109.531 200.685 84.5594C214.784 59.5879 235.1 38.6865 259.661 23.8848C269.824 17.7408 267.853 0 256 0C114.611 0 0 114.611 0 256Z" fill="#DC1B19"/>
</svg>
